# xmcd CD database file
#
# Track frame offsets:
#	150
#	15960
#	38565
#	52945
#	72810
#	97935
#	118560
#	135360
#	157280
#	176510
#	190860
#	203385
#	227235
#
# Disc length: 3237 seconds
#
# Revision: 4
# Processed by: cddbd v1.5.2PL0 Copyright (c) Steve Scherf et al.
# Submitted via: CDex 1.51
#
DISCID=980ca30d
DTITLE=Manfred Krug - Schlafstörung
DYEAR=2000
DGENRE=Blues
TTITLE0=Das Lied mit einem Ton
TTITLE1=Schau her zu mir
TTITLE2=Ich brauche keine Millionen
TTITLE3=Es hängt ein Pferdehalfter an der Wand
TTITLE4=Frosches Lied
TTITLE5=Copacabana
TTITLE6=Nah bei dir
TTITLE7=Ich hab sie heut noch lieb
TTITLE8=Mit dem Wind muß ich weiterziehn
TTITLE9=Schon nach einer Sekunde
TTITLE10=Wunderbar ist die Welt
TTITLE11=Wenn' s regnet
TTITLE12=Maskenspiel
EXTD=YEAR: 2000
EXTT0=
EXTT1=
EXTT2=
EXTT3=
EXTT4=
EXTT5=
EXTT6=
EXTT7=
EXTT8=
EXTT9=
EXTT10=
EXTT11=
EXTT12=
PLAYORDER=
